<?xml version="1.0" standalone="no"?>
<!DOCTYPE svg PUBLIC "-//W3C//DTD SVG 20010904//EN"
 "http://www.w3.org/TR/2001/REC-SVG-20010904/DTD/svg10.dtd">
<svg version="1.0" xmlns="http://www.w3.org/2000/svg"
 width="700.000000pt" height="700.000000pt" viewBox="0 0 700.000000 700.000000"
 preserveAspectRatio="xMidYMid meet">
<metadata>
Created by potrace 1.11, written by Peter Selinger 2001-2013
</metadata>
<g transform="translate(0.000000,700.000000) scale(0.100000,-0.100000)"
fill="#000000" stroke="none">
<path d="M3215 6989 c-1067 -91 -2014 -645 -2614 -1529 -322 -474 -508 -982
-583 -1590 -17 -138 -17 -602 0 -740 105 -852 445 -1549 1043 -2137 475 -466
1092 -793 1754 -927 248 -50 369 -61 685 -61 348 0 509 18 800 86 1363 321
2411 1430 2649 2804 39 222 46 316 46 610 0 310 -11 435 -61 680 -214 1059
-910 1967 -1879 2453 -549 274 -1224 403 -1840 351z m2186 -1235 c128 -38 257
-141 313 -252 60 -118 56 17 56 -2002 0 -2024 4 -1883 -58 -2005 -31 -62 -141
-172 -208 -207 -115 -61 5 -58 -2004 -58 -2010 0 -1890 -3 -2004 58 -73 39
-168 132 -203 199 -68 127 -63 -25 -63 2013 0 1669 2 1852 16 1901 26 86 62
149 125 215 64 66 130 107 218 135 53 17 162 18 1907 18 1666 1 1856 -1 1905
-15z"/>
<path d="M1652 5574 c-97 -26 -167 -88 -214 -190 l-23 -49 0 -1835 0 -1835 26
-55 c37 -80 81 -125 157 -162 l67 -33 1835 0 1835 0 67 33 c76 37 120 82 157
162 l26 55 0 1835 0 1835 -23 49 c-47 104 -117 165 -218 191 -85 22 -3610 22
-3692 -1z m1447 -1134 c304 -32 476 -161 531 -399 16 -67 16 -225 0 -294 -67
-291 -342 -460 -722 -445 l-118 5 0 -379 0 -379 -117 3 -118 3 -3 926 -2 927
22 5 c29 7 205 26 278 30 118 7 158 6 249 -3z m1441 -625 l0 -115 -63 0 c-131
0 -220 -59 -283 -184 -47 -96 -53 -168 -54 -618 l0 -348 -115 0 -115 0 0 523
c0 288 -3 592 -7 675 l-6 152 106 0 107 0 0 -102 c0 -57 3 -113 6 -126 6 -20
10 -16 35 33 70 140 194 224 332 225 l57 0 0 -115z"/>
<path d="M2823 4253 l-33 -4 0 -373 0 -374 23 -6 c38 -10 233 -7 289 5 126 27
237 117 277 224 62 166 21 363 -96 451 -79 60 -142 77 -293 80 -74 1 -150 0
-167 -3z"/>
</g>
</svg>
